<svg width="569" height="515" viewBox="0 0 569 515" fill="none" xmlns="http://www.w3.org/2000/svg">
<rect x="159" width="410" height="466" fill="#E3EBE7"/>
<rect opacity="0.4" y="309" width="159" height="157" fill="#E3EBE7"/>
<path d="M67 390H92M92 390C92 390 90.1716 388.172 89 387M92 390L89 393" stroke="black" stroke-width="1.7" stroke-linecap="round"/>
<path d="M250.454 165.069V165.069C249.752 164.991 244.793 161.65 244.793 160.943V147.531C243.887 138.932 221.394 139.422 210.261 140.742C198.033 143.005 197.24 169.218 198.372 182.042V182.042C198.372 191.441 212.768 188.83 222.168 188.83H250.454M250.454 165.069V188.83M250.454 165.069C251.174 165.149 254.215 165.207 258.946 165.246M371.601 165.069V165.069C371.601 154.134 380.467 145.268 391.402 145.268H402.519C411.347 145.268 419.814 151.379 418.306 160.078C418.208 160.642 418.09 161.201 417.95 161.749C417.672 162.837 417.456 163.946 417.456 165.069V165.069M371.601 165.069H378.961M371.601 165.069C342.617 165.211 291.344 165.394 265.739 165.287M417.456 165.069H425.949C427.199 165.069 428.212 164.056 428.212 162.806V162.806V182.607C428.212 184.682 427.193 188.83 423.117 188.83H417.456M417.456 165.069H410.663M250.454 188.83H258.946M258.946 165.246V188.83M258.946 165.246C259.313 165.249 259.691 165.252 260.078 165.255M258.946 188.83L373.866 188.83M273.665 182.042C273.665 182.042 317.138 182.042 344.994 182.042M206.298 182.607C212.336 183.362 231.207 184.304 231.207 184.304M209.695 148.097C209.695 148.097 222.806 148.097 231.207 148.097M373.866 188.83V228.998M373.866 188.83H379.527M373.866 228.998H316.123M373.866 228.998H379.527M294.045 249.365V234.659C294.045 231.533 296.579 228.998 299.706 228.998V228.998M294.045 249.365H281.024C279.515 249.176 276.608 250.157 277.061 255.588C277.709 266.264 279.828 285.764 283.562 289.953C284.559 291.071 286.319 290.664 287.817 290.664V290.664M294.045 249.365H300.838M299.706 228.998L300.838 249.365M299.706 228.998H316.123M300.838 249.365H307.631M316.123 228.998V249.365M316.123 249.365H307.631M316.123 249.365H325.181M496.145 249.365H507.467C513.808 248.912 515.016 252.948 514.827 255.022C514.511 273.633 509.961 283.615 507.232 287.955C506.073 289.799 503.984 290.664 501.806 290.664V290.664M496.145 249.365V235.225C496.145 231.786 493.357 228.998 489.918 228.998V228.998M496.145 249.365H489.918M489.918 228.998V249.365M489.918 228.998H475.199M489.918 249.365H475.199M475.199 228.998V249.365M475.199 228.998H417.456M475.199 249.365H465.009M417.456 188.83V228.998M417.456 188.83H410.663M417.456 228.998H411.229M296.875 296.887H495.013M501.806 290.664H498.41H496.145M501.806 290.664L541.743 490.217C541.914 491.072 542 491.941 542 492.812V492.812C542 496.32 540.606 499.684 538.125 502.164L534.637 505.649C529.927 510.356 523.541 513 516.882 513H285.416C272.092 513 259.313 507.709 249.888 498.291V498.291V498.291C248.827 497.23 248.365 495.71 248.656 494.238L288.95 290.664M501.806 290.664L505.769 260.114M288.95 290.664H287.817M288.95 290.664H294.045M295.177 304.807H314.991M291.214 315.556H309.896M476.331 305.373H495.013M481.426 316.122C488.059 316.122 491.777 316.122 498.41 316.122M256.681 487.542C273.262 487.542 282.559 487.542 299.14 487.542M256.681 497.159L361.411 500.554M265.173 503.948C287.281 504.611 299.676 504.983 321.784 505.645M490.484 486.976L534.641 487.542M428.212 500.554C428.212 500.554 492.043 498.485 532.942 497.159M468.972 505.645C491.08 504.983 503.475 504.611 525.583 503.948M284.987 260.68L287.817 290.664M292.346 272.56L294.045 290.664M294.045 290.664H496.145M307.065 238.05L307.631 249.365M326.313 237.484L325.181 249.365M325.181 249.365H465.009M464.443 236.918L465.009 249.365M483.691 238.616V249.93M497.844 271.994L496.145 290.664M382 154V154C379.743 157.224 378.663 161.145 378.961 165.069V165.069M378.961 165.069H410.663M409.5 152.5V152.5C410.779 154.098 411.357 156.146 411.103 158.177L411 159L410.663 165.069M410.663 206.934V188.83M410.663 188.83H379.527M380.093 206.934L379.527 188.83M380.093 218.249L379.527 228.998M379.527 228.998H411.229M410.663 217.683L411.229 228.998M261.776 166.201H264.607H265.07C265.137 166.201 265.201 166.177 265.252 166.134V166.134C265.467 165.952 265.309 165.601 265.029 165.642L263.4 165.88C262.926 165.95 262.893 166.621 263.357 166.737V166.737C263.434 166.756 263.504 166.796 263.56 166.852L263.702 166.993C263.919 167.21 264.041 167.505 264.041 167.812V167.927C264.041 169.415 262.057 169.921 261.345 168.615L260.743 167.513C260.677 167.393 260.626 167.266 260.59 167.133L260.078 165.255M260.078 165.255C260.799 165.261 261.555 165.266 262.343 165.27M262.343 165.27C263.416 165.276 264.55 165.282 265.739 165.287M262.343 165.27L265.739 165.287M244.793 175.253V182.607M223 153.5L221.583 156.017L224.413 153.189L221.583 152.623M218 151.491C221.152 151.629 223.015 151.581 225.985 151.508C226.416 151.498 226.823 151.709 227.062 152.067V152.067C227.466 152.674 227.271 153.495 226.682 153.924C225.37 154.878 223.847 156.34 223.847 157.715C223.847 158.042 223.715 158.249 223.491 158.36C220.259 159.97 221.611 151.488 218 151.491V151.491Z" stroke="#444A4A" stroke-width="3"/>
<path d="M298.969 391.438C298.5 388.906 298.57 386.258 299.18 383.492C299.836 380.68 300.867 377.891 302.273 375.125C303.68 372.359 305.414 369.711 307.477 367.18C309.539 364.602 311.742 362.281 314.086 360.219C316.477 358.156 318.961 356.422 321.539 355.016C324.164 353.609 326.719 352.648 329.203 352.133C329.953 352.133 330.609 352.367 331.172 352.836C331.781 353.305 332.297 353.891 332.719 354.594C333.141 355.297 333.445 356.047 333.633 356.844C333.867 357.641 333.984 358.367 333.984 359.023V365.844C333.984 366.312 333.797 366.617 333.422 366.758C333.047 366.852 332.719 366.898 332.438 366.898C332.109 366.898 331.711 366.852 331.242 366.758C330.773 366.664 330.539 366.359 330.539 365.844C330.539 365.656 330.516 365.352 330.469 364.93C330.422 364.508 330.375 364.039 330.328 363.523C330.281 363.008 330.234 362.516 330.188 362.047C330.188 361.578 330.188 361.273 330.188 361.133C330.188 361.039 330.164 360.734 330.117 360.219C330.117 359.656 330.07 359.094 329.977 358.531C329.883 357.969 329.742 357.453 329.555 356.984C329.367 356.516 329.133 356.281 328.852 356.281H326.391C326.391 356.281 326.18 356.398 325.758 356.633C325.336 356.82 324.844 357.055 324.281 357.336C323.719 357.617 323.156 357.922 322.594 358.25C322.031 358.531 321.609 358.789 321.328 359.023C321.188 359.117 320.953 359.281 320.625 359.516C320.344 359.75 320.039 359.984 319.711 360.219C319.383 360.453 319.078 360.688 318.797 360.922C318.516 361.156 318.305 361.32 318.164 361.414C315.633 363.852 313.43 366.125 311.555 368.234C309.68 370.297 308.109 372.453 306.844 374.703C305.578 376.953 304.617 379.391 303.961 382.016C303.352 384.594 303.047 387.664 303.047 391.227C303.047 392.633 303.117 394.203 303.258 395.938C303.445 397.625 303.703 399.359 304.031 401.141C304.406 402.922 304.922 404.68 305.578 406.414C306.234 408.102 307.055 409.602 308.039 410.914C309.023 412.227 310.219 413.281 311.625 414.078C313.031 414.875 314.695 415.273 316.617 415.273H318.164C320.273 414.57 322.125 413.938 323.719 413.375C325.359 412.766 326.812 412.156 328.078 411.547C329.391 410.938 330.562 410.281 331.594 409.578C332.672 408.828 333.703 407.938 334.688 406.906C335.719 405.875 336.773 404.633 337.852 403.18C338.93 401.727 340.148 400.016 341.508 398.047C341.555 398.047 341.625 398.047 341.719 398.047C341.812 398 341.906 397.977 342 397.977C342.844 397.977 343.266 398.398 343.266 399.242C343.266 400.32 342.984 401.539 342.422 402.898C341.906 404.211 340.922 405.664 339.469 407.258C338.062 408.852 336.07 410.539 333.492 412.32C330.961 414.055 327.703 415.812 323.719 417.594C322.969 417.922 322.312 418.203 321.75 418.438C321.188 418.625 320.648 418.766 320.133 418.859C319.617 418.953 319.078 419 318.516 419C318 419.047 317.414 419.07 316.758 419.07C314.32 419.07 312.188 418.648 310.359 417.805C308.578 416.961 307.031 415.836 305.719 414.43C304.406 412.977 303.305 411.336 302.414 409.508C301.57 407.633 300.891 405.664 300.375 403.602C299.859 401.492 299.484 399.406 299.25 397.344C299.062 395.234 298.969 393.266 298.969 391.438ZM341.438 413.516C341.438 413.469 341.461 413.305 341.508 413.023C341.555 412.742 341.602 412.461 341.648 412.18C341.695 411.852 341.742 411.57 341.789 411.336C341.836 411.055 341.859 410.867 341.859 410.773V410.492V410.07L342.844 405.641C343.641 403.953 344.461 402.336 345.305 400.789C346.195 399.242 347.203 397.883 348.328 396.711C349.453 395.539 350.742 394.602 352.195 393.898C353.695 393.195 355.5 392.844 357.609 392.844C358.031 392.844 358.547 392.984 359.156 393.266C359.812 393.5 360.445 393.805 361.055 394.18C361.711 394.555 362.297 394.953 362.812 395.375C363.375 395.75 363.797 396.102 364.078 396.43C365.531 396.195 366.586 396.078 367.242 396.078C367.898 396.031 368.461 396.008 368.93 396.008C369.398 395.961 369.891 395.867 370.406 395.727C370.969 395.586 371.812 395.281 372.938 394.812C373.734 394.578 374.508 394.461 375.258 394.461C375.586 394.461 375.891 394.602 376.172 394.883C376.5 395.164 376.664 395.492 376.664 395.867C376.664 396.336 376.5 396.758 376.172 397.133C375.844 397.508 375.445 397.742 374.977 397.836L366.188 399.805L365.414 400.156C365.367 402.688 364.805 405.102 363.727 407.398C362.648 409.695 361.219 411.711 359.438 413.445C357.656 415.18 355.594 416.562 353.25 417.594C350.906 418.578 348.469 419.07 345.938 419.07C345.75 419.07 345.445 419.047 345.023 419C344.602 419 344.32 419 344.18 419C343.148 418.578 342.422 417.805 342 416.68C341.625 415.555 341.438 414.5 341.438 413.516ZM345.938 414.922C345.984 415.156 346.172 415.273 346.5 415.273C346.828 415.273 347.062 415.273 347.203 415.273C348.891 415.273 350.625 414.852 352.406 414.008C354.188 413.117 355.781 411.992 357.188 410.633C358.641 409.227 359.812 407.656 360.703 405.922C361.641 404.141 362.109 402.359 362.109 400.578C360.609 400.578 359.109 400.461 357.609 400.227C356.109 399.945 354.656 399.805 353.25 399.805H353.18L347.344 405.992C347.016 406.32 346.758 406.766 346.57 407.328C346.383 407.891 346.242 408.5 346.148 409.156C346.055 409.812 345.984 410.469 345.938 411.125C345.891 411.781 345.867 412.367 345.867 412.883C345.867 413.023 345.867 413.352 345.867 413.867C345.867 414.383 345.891 414.734 345.938 414.922ZM373.43 441.641C373.43 441.5 373.43 441.266 373.43 440.938C373.43 440.656 373.43 440.352 373.43 440.023C373.43 439.742 373.43 439.484 373.43 439.25C373.43 439.062 373.43 438.945 373.43 438.898L375.891 416.891C376.219 415.156 376.5 413.797 376.734 412.812C376.969 411.781 377.156 411.008 377.297 410.492C377.484 409.93 377.672 409.555 377.859 409.367L382.992 392.914C383.18 392.352 383.531 391.555 384.047 390.523C384.562 389.445 385.148 388.391 385.805 387.359C386.508 386.328 387.258 385.461 388.055 384.758C388.852 384.008 389.648 383.633 390.445 383.633C390.773 383.633 391.055 383.75 391.289 383.984C391.523 384.219 391.711 384.5 391.852 384.828C392.039 385.156 392.156 385.508 392.203 385.883C392.297 386.258 392.344 386.562 392.344 386.797C392.344 388.953 392.039 391.156 391.43 393.406C390.867 395.656 390.117 397.883 389.18 400.086C388.242 402.242 387.117 404.305 385.805 406.273C384.492 408.242 383.109 409.977 381.656 411.477L380.602 415.273C385.898 415.18 391.031 414.312 396 412.672C401.016 411.031 405.82 409.016 410.414 406.625H410.766C411.188 406.625 411.469 406.789 411.609 407.117C411.797 407.398 411.891 407.703 411.891 408.031C411.891 408.406 411.82 408.734 411.68 409.016C411.539 409.297 411.234 409.555 410.766 409.789C407.062 412.086 403.102 413.961 398.883 415.414C394.664 416.867 390.398 417.969 386.086 418.719C386.93 419.656 387.633 420.43 388.195 421.039C388.758 421.648 389.203 422.258 389.531 422.867C389.906 423.523 390.164 424.273 390.305 425.117C390.492 425.961 390.586 427.109 390.586 428.562C390.586 432.219 389.719 435.406 387.984 438.125C386.297 440.891 384.07 443.445 381.305 445.789C380.648 446.305 379.828 446.844 378.844 447.406C377.906 447.969 376.992 448.25 376.102 448.25C375.305 448.25 374.719 447.992 374.344 447.477C373.969 446.961 373.711 446.352 373.57 445.648C373.43 444.992 373.383 444.289 373.43 443.539C373.43 442.789 373.43 442.156 373.43 441.641ZM379.195 421.742C379.008 423.195 378.797 424.836 378.562 426.664C378.328 428.492 378.117 430.367 377.93 432.289C377.742 434.211 377.578 436.133 377.438 438.055C377.297 439.977 377.227 441.781 377.227 443.469C378.492 443.469 379.711 442.906 380.883 441.781C382.102 440.703 383.18 439.367 384.117 437.773C385.055 436.227 385.828 434.633 386.438 432.992C387.047 431.352 387.375 429.992 387.422 428.914C387.516 427.602 387.422 426.477 387.141 425.539C386.906 424.648 386.508 423.875 385.945 423.219C385.383 422.609 384.656 422.094 383.766 421.672C382.875 421.25 381.82 420.828 380.602 420.406H380.25C379.922 420.406 379.688 420.547 379.547 420.828C379.406 421.109 379.289 421.414 379.195 421.742ZM387.844 391.578C387.797 391.578 387.703 391.766 387.562 392.141C387.422 392.469 387.234 392.844 387 393.266C386.812 393.688 386.625 394.133 386.438 394.602C386.297 395.07 386.18 395.422 386.086 395.656C385.945 396.031 385.781 396.523 385.594 397.133C385.406 397.695 385.219 398.281 385.031 398.891C384.891 399.453 384.75 399.969 384.609 400.438C384.469 400.859 384.398 401.094 384.398 401.141V401.562C385.289 399.969 386.109 398.305 386.859 396.57C387.609 394.789 388.031 393.008 388.125 391.227L387.844 391.578ZM408.516 441.641C408.516 441.5 408.516 441.266 408.516 440.938C408.516 440.656 408.516 440.352 408.516 440.023C408.516 439.742 408.516 439.484 408.516 439.25C408.516 439.062 408.516 438.945 408.516 438.898L410.977 416.891C411.305 415.156 411.586 413.797 411.82 412.812C412.055 411.781 412.242 411.008 412.383 410.492C412.57 409.93 412.758 409.555 412.945 409.367L418.078 392.914C418.266 392.352 418.617 391.555 419.133 390.523C419.648 389.445 420.234 388.391 420.891 387.359C421.594 386.328 422.344 385.461 423.141 384.758C423.938 384.008 424.734 383.633 425.531 383.633C425.859 383.633 426.141 383.75 426.375 383.984C426.609 384.219 426.797 384.5 426.938 384.828C427.125 385.156 427.242 385.508 427.289 385.883C427.383 386.258 427.43 386.562 427.43 386.797C427.43 388.953 427.125 391.156 426.516 393.406C425.953 395.656 425.203 397.883 424.266 400.086C423.328 402.242 422.203 404.305 420.891 406.273C419.578 408.242 418.195 409.977 416.742 411.477L415.688 415.273C420.984 415.18 426.117 414.312 431.086 412.672C436.102 411.031 440.906 409.016 445.5 406.625H445.852C446.273 406.625 446.555 406.789 446.695 407.117C446.883 407.398 446.977 407.703 446.977 408.031C446.977 408.406 446.906 408.734 446.766 409.016C446.625 409.297 446.32 409.555 445.852 409.789C442.148 412.086 438.188 413.961 433.969 415.414C429.75 416.867 425.484 417.969 421.172 418.719C422.016 419.656 422.719 420.43 423.281 421.039C423.844 421.648 424.289 422.258 424.617 422.867C424.992 423.523 425.25 424.273 425.391 425.117C425.578 425.961 425.672 427.109 425.672 428.562C425.672 432.219 424.805 435.406 423.07 438.125C421.383 440.891 419.156 443.445 416.391 445.789C415.734 446.305 414.914 446.844 413.93 447.406C412.992 447.969 412.078 448.25 411.188 448.25C410.391 448.25 409.805 447.992 409.43 447.477C409.055 446.961 408.797 446.352 408.656 445.648C408.516 444.992 408.469 444.289 408.516 443.539C408.516 442.789 408.516 442.156 408.516 441.641ZM414.281 421.742C414.094 423.195 413.883 424.836 413.648 426.664C413.414 428.492 413.203 430.367 413.016 432.289C412.828 434.211 412.664 436.133 412.523 438.055C412.383 439.977 412.312 441.781 412.312 443.469C413.578 443.469 414.797 442.906 415.969 441.781C417.188 440.703 418.266 439.367 419.203 437.773C420.141 436.227 420.914 434.633 421.523 432.992C422.133 431.352 422.461 429.992 422.508 428.914C422.602 427.602 422.508 426.477 422.227 425.539C421.992 424.648 421.594 423.875 421.031 423.219C420.469 422.609 419.742 422.094 418.852 421.672C417.961 421.25 416.906 420.828 415.688 420.406H415.336C415.008 420.406 414.773 420.547 414.633 420.828C414.492 421.109 414.375 421.414 414.281 421.742ZM422.93 391.578C422.883 391.578 422.789 391.766 422.648 392.141C422.508 392.469 422.32 392.844 422.086 393.266C421.898 393.688 421.711 394.133 421.523 394.602C421.383 395.07 421.266 395.422 421.172 395.656C421.031 396.031 420.867 396.523 420.68 397.133C420.492 397.695 420.305 398.281 420.117 398.891C419.977 399.453 419.836 399.969 419.695 400.438C419.555 400.859 419.484 401.094 419.484 401.141V401.562C420.375 399.969 421.195 398.305 421.945 396.57C422.695 394.789 423.117 393.008 423.211 391.227L422.93 391.578ZM445.641 408.031C445.734 407.75 445.875 407.258 446.062 406.555C446.297 405.805 446.508 405.008 446.695 404.164C446.93 403.32 447.117 402.523 447.258 401.773C447.445 400.977 447.586 400.438 447.68 400.156C447.961 399.031 448.289 397.812 448.664 396.5C449.086 395.188 449.648 393.969 450.352 392.844C451.055 391.719 451.945 390.805 453.023 390.102C454.148 389.352 455.531 388.977 457.172 388.977C457.781 388.977 458.203 389.211 458.438 389.68C458.719 390.102 458.953 390.57 459.141 391.086C459.141 391.273 459.141 391.625 459.141 392.141C459.188 392.609 459.211 392.938 459.211 393.125C459.211 395.141 459 396.922 458.578 398.469C458.203 400.016 457.594 401.445 456.75 402.758C455.953 404.07 454.969 405.312 453.797 406.484C452.625 407.609 451.289 408.805 449.789 410.07C449.742 410.211 449.672 410.445 449.578 410.773C449.484 411.102 449.438 411.336 449.438 411.477V411.617C449.438 412.461 449.578 413.141 449.859 413.656C450.141 414.172 450.516 414.594 450.984 414.922C451.5 415.203 452.062 415.391 452.672 415.484C453.328 415.531 454.031 415.555 454.781 415.555C456.984 415.555 459.094 415.25 461.109 414.641C463.125 414.031 464.977 413.047 466.664 411.688C466.898 411.453 467.18 411.125 467.508 410.703C467.883 410.234 468.258 409.766 468.633 409.297C469.008 408.828 469.406 408.43 469.828 408.102C470.25 407.727 470.695 407.539 471.164 407.539C471.633 407.539 471.914 407.727 472.008 408.102C472.102 408.477 472.148 408.852 472.148 409.227C472.148 410.258 471.82 411.242 471.164 412.18C470.555 413.07 469.734 413.891 468.703 414.641C467.719 415.344 466.57 415.977 465.258 416.539C463.992 417.102 462.727 417.57 461.461 417.945C460.195 418.32 458.977 418.602 457.805 418.789C456.68 418.977 455.719 419.07 454.922 419.07C452.438 419.07 450.352 418.672 448.664 417.875C447.023 417.031 445.898 415.367 445.289 412.883L445.641 408.031ZM455.695 394.18C454.758 395.023 454.008 395.797 453.445 396.5C452.93 397.156 452.508 397.859 452.18 398.609C451.898 399.312 451.641 400.086 451.406 400.93C451.219 401.773 451.008 402.758 450.773 403.883C451.664 403.18 452.391 402.477 452.953 401.773C453.562 401.07 454.055 400.344 454.43 399.594C454.805 398.844 455.086 398.047 455.273 397.203C455.461 396.312 455.602 395.305 455.695 394.18ZM471.656 408.031C471.75 407.75 471.891 407.258 472.078 406.555C472.312 405.805 472.523 405.008 472.711 404.164C472.945 403.32 473.133 402.523 473.273 401.773C473.461 400.977 473.602 400.438 473.695 400.156C473.977 399.031 474.305 397.812 474.68 396.5C475.102 395.188 475.664 393.969 476.367 392.844C477.07 391.719 477.961 390.805 479.039 390.102C480.164 389.352 481.547 388.977 483.188 388.977C483.797 388.977 484.219 389.211 484.453 389.68C484.734 390.102 484.969 390.57 485.156 391.086C485.156 391.273 485.156 391.625 485.156 392.141C485.203 392.609 485.227 392.938 485.227 393.125C485.227 395.141 485.016 396.922 484.594 398.469C484.219 400.016 483.609 401.445 482.766 402.758C481.969 404.07 480.984 405.312 479.812 406.484C478.641 407.609 477.305 408.805 475.805 410.07C475.758 410.211 475.688 410.445 475.594 410.773C475.5 411.102 475.453 411.336 475.453 411.477V411.617C475.453 412.461 475.594 413.141 475.875 413.656C476.156 414.172 476.531 414.594 477 414.922C477.516 415.203 478.078 415.391 478.688 415.484C479.344 415.531 480.047 415.555 480.797 415.555C483 415.555 485.109 415.25 487.125 414.641C489.141 414.031 490.992 413.047 492.68 411.688C492.914 411.453 493.195 411.125 493.523 410.703C493.898 410.234 494.273 409.766 494.648 409.297C495.023 408.828 495.422 408.43 495.844 408.102C496.266 407.727 496.711 407.539 497.18 407.539C497.648 407.539 497.93 407.727 498.023 408.102C498.117 408.477 498.164 408.852 498.164 409.227C498.164 410.258 497.836 411.242 497.18 412.18C496.57 413.07 495.75 413.891 494.719 414.641C493.734 415.344 492.586 415.977 491.273 416.539C490.008 417.102 488.742 417.57 487.477 417.945C486.211 418.32 484.992 418.602 483.82 418.789C482.695 418.977 481.734 419.07 480.938 419.07C478.453 419.07 476.367 418.672 474.68 417.875C473.039 417.031 471.914 415.367 471.305 412.883L471.656 408.031ZM481.711 394.18C480.773 395.023 480.023 395.797 479.461 396.5C478.945 397.156 478.523 397.859 478.195 398.609C477.914 399.312 477.656 400.086 477.422 400.93C477.234 401.773 477.023 402.758 476.789 403.883C477.68 403.18 478.406 402.477 478.969 401.773C479.578 401.07 480.07 400.344 480.445 399.594C480.82 398.844 481.102 398.047 481.289 397.203C481.477 396.312 481.617 395.305 481.711 394.18Z" fill="#444A4A"/>
</svg>
